<?xml version="1.0" encoding="utf-8"?>
<!-- Generator: Adobe Illustrator 26.0.3, SVG Export Plug-In . SVG Version: 6.00 Build 0)  -->
<svg version="1.1" id="Capa_1" xmlns="http://www.w3.org/2000/svg" xmlns:xlink="http://www.w3.org/1999/xlink" x="0px" y="0px"
	 viewBox="0 0 1920 1080" style="enable-background:new 0 0 1920 1080;" xml:space="preserve">
<style type="text/css">
	.st0{fill:none;}
	.st1{fill:#1D1D1B;}
	.st2{font-family:'MyriadPro-Regular';}
	.st3{font-size:98.6074px;}
	.st4{fill:#FFFFFF;}
	.st5{fill:#6EBB80;}
	.st6{fill:#C92617;}
	.st7{fill:#3BBEEF;}
	.st8{fill:#891720;}
	.st9{fill:#006A26;}
	.st10{font-size:552.2013px;}
	.st11{fill:#1D1D1B;stroke:#1D1D1B;stroke-width:6;stroke-miterlimit:10;}
</style>
<rect x="493.62" y="764.35" class="st0" width="1373.38" height="117.53"/>
<text transform="matrix(0.6992 0 0 1 493.6167 834.3643)" class="st1 st2 st3">Specialized Painting and rework services</text>
<polyline class="st1" points="163.92,415.03 267.66,537.86 163.92,622.35 "/>
<polyline class="st4" points="141.31,410.37 245.05,533.21 141.31,617.69 "/>
<polyline class="st5" points="152.61,313.7 256.35,436.53 152.61,521.02 "/>
<polyline class="st4" points="130,309.04 233.74,431.87 130,516.36 "/>
<polyline class="st1" points="163.92,620.39 267.66,743.22 163.92,827.71 "/>
<polyline class="st4" points="141.31,615.73 245.05,738.56 141.31,823.05 "/>
<polyline class="st6" points="152.61,519.05 256.35,641.89 152.61,726.37 "/>
<polyline class="st4" points="130,514.4 233.74,637.23 130,721.72 "/>
<polyline class="st1" points="449.68,419.69 369.39,542.52 449.68,627.01 "/>
<polyline class="st4" points="467.18,415.03 386.89,537.86 467.18,622.35 "/>
<polyline class="st7" points="458.43,318.36 378.14,441.19 458.43,525.68 "/>
<polyline class="st4" points="475.93,313.7 395.64,436.53 475.93,521.02 "/>
<polyline class="st1" points="449.68,625.04 369.39,747.88 449.68,832.36 "/>
<polyline class="st4" points="467.18,620.39 386.89,743.22 467.18,827.71 "/>
<polyline class="st8" points="458.43,523.71 378.14,646.55 458.43,731.03 "/>
<polyline class="st4" points="475.93,519.05 395.64,641.89 475.93,726.37 "/>
<text transform="matrix(0.8446 0 0 1 565.6011 719.7129)" class="st9 st2 st10">SPRS</text>
<line class="st11" x1="312.87" y1="387.03" x2="312.87" y2="911"/>
<line class="st11" x1="312.87" y1="165" x2="312.87" y2="278.64"/>
</svg>
